<mxfile host="65bd71144e">
    <diagram id="NEdHK6LGdwnrJe_Hiw0N" name="Page-1">
        <mxGraphModel dx="1146" dy="784" grid="1" gridSize="10" guides="1" tooltips="1" connect="1" arrows="1" fold="1" page="1" pageScale="1" pageWidth="1654" pageHeight="2336" math="0" shadow="0">
            <root>
                <mxCell id="0"/>
                <mxCell id="1" parent="0"/>
                <mxCell id="2" value="main.js" style="rounded=0;whiteSpace=wrap;html=1;" parent="1" vertex="1">
                    <mxGeometry x="40" y="40" width="120" height="60" as="geometry"/>
                </mxCell>
                <mxCell id="3" value="" style="endArrow=none;html=1;" parent="1" edge="1">
                    <mxGeometry width="50" height="50" relative="1" as="geometry">
                        <mxPoint x="100" y="1470" as="sourcePoint"/>
                        <mxPoint x="100" y="100" as="targetPoint"/>
                    </mxGeometry>
                </mxCell>
                <mxCell id="4" value="Bookings.js" style="rounded=0;whiteSpace=wrap;html=1;" parent="1" vertex="1">
                    <mxGeometry x="490" y="40" width="120" height="60" as="geometry"/>
                </mxCell>
                <mxCell id="5" value="Bands.js" style="rounded=0;whiteSpace=wrap;html=1;" parent="1" vertex="1">
                    <mxGeometry x="490" y="520" width="120" height="60" as="geometry"/>
                </mxCell>
                <mxCell id="6" value="Venues.js" style="rounded=0;whiteSpace=wrap;html=1;" parent="1" vertex="1">
                    <mxGeometry x="490" y="1080" width="120" height="60" as="geometry"/>
                </mxCell>
                <mxCell id="7" value="" style="endArrow=none;html=1;exitX=0.5;exitY=0;exitDx=0;exitDy=0;" parent="1" source="5" edge="1">
                    <mxGeometry width="50" height="50" relative="1" as="geometry">
                        <mxPoint x="500" y="150" as="sourcePoint"/>
                        <mxPoint x="550" y="100" as="targetPoint"/>
                    </mxGeometry>
                </mxCell>
                <mxCell id="8" value="For Loop" style="rounded=0;whiteSpace=wrap;html=1;" parent="1" vertex="1">
                    <mxGeometry x="430" y="160" width="120" height="20" as="geometry"/>
                </mxCell>
                <mxCell id="9" value="loops through bookings array and assigns a band to a venue on a given date" style="rounded=0;whiteSpace=wrap;html=1;" parent="1" vertex="1">
                    <mxGeometry x="390" y="180" width="160" height="60" as="geometry"/>
                </mxCell>
                <mxCell id="10" value="" style="endArrow=classic;html=1;" parent="1" edge="1">
                    <mxGeometry width="50" height="50" relative="1" as="geometry">
                        <mxPoint x="100" y="140" as="sourcePoint"/>
                        <mxPoint x="550" y="140" as="targetPoint"/>
                    </mxGeometry>
                </mxCell>
                <mxCell id="11" value="calls Bookings()" style="text;html=1;strokeColor=none;fillColor=none;align=center;verticalAlign=middle;whiteSpace=wrap;rounded=0;" parent="1" vertex="1">
                    <mxGeometry x="160" y="100" width="330" height="30" as="geometry"/>
                </mxCell>
                <mxCell id="12" value="" style="endArrow=classic;html=1;" parent="1" edge="1">
                    <mxGeometry width="50" height="50" relative="1" as="geometry">
                        <mxPoint x="390" y="208" as="sourcePoint"/>
                        <mxPoint x="100" y="208" as="targetPoint"/>
                    </mxGeometry>
                </mxCell>
                <mxCell id="13" value="returns booking html" style="text;html=1;strokeColor=none;fillColor=none;align=center;verticalAlign=middle;whiteSpace=wrap;rounded=0;" parent="1" vertex="1">
                    <mxGeometry x="110" y="170" width="270" height="30" as="geometry"/>
                </mxCell>
                <mxCell id="14" value="Event Listener" style="rounded=0;whiteSpace=wrap;html=1;" parent="1" vertex="1">
                    <mxGeometry x="430" y="280" width="120" height="20" as="geometry"/>
                </mxCell>
                <mxCell id="15" value="when booking is clicked, all band information is displayed via window alert" style="rounded=0;whiteSpace=wrap;html=1;" parent="1" vertex="1">
                    <mxGeometry x="400" y="300" width="150" height="60" as="geometry"/>
                </mxCell>
                <mxCell id="16" value="" style="endArrow=none;html=1;exitX=0.5;exitY=0;exitDx=0;exitDy=0;" parent="1" source="6" edge="1">
                    <mxGeometry width="50" height="50" relative="1" as="geometry">
                        <mxPoint x="550" y="930" as="sourcePoint"/>
                        <mxPoint x="550" y="580" as="targetPoint"/>
                    </mxGeometry>
                </mxCell>
                <mxCell id="17" value="For Loop" style="rounded=0;whiteSpace=wrap;html=1;" parent="1" vertex="1">
                    <mxGeometry x="430" y="620" width="120" height="20" as="geometry"/>
                </mxCell>
                <mxCell id="18" value="" style="endArrow=classic;html=1;" parent="1" edge="1">
                    <mxGeometry width="50" height="50" relative="1" as="geometry">
                        <mxPoint x="100" y="600" as="sourcePoint"/>
                        <mxPoint x="550" y="600" as="targetPoint"/>
                    </mxGeometry>
                </mxCell>
                <mxCell id="19" value="calls Bands()" style="text;html=1;strokeColor=none;fillColor=none;align=center;verticalAlign=middle;whiteSpace=wrap;rounded=0;" parent="1" vertex="1">
                    <mxGeometry x="120" y="560" width="350" height="30" as="geometry"/>
                </mxCell>
                <mxCell id="20" value="loops through bands array and prints each band name in ul format" style="rounded=0;whiteSpace=wrap;html=1;" parent="1" vertex="1">
                    <mxGeometry x="400" y="640" width="150" height="60" as="geometry"/>
                </mxCell>
                <mxCell id="21" value="" style="endArrow=classic;html=1;exitX=0;exitY=0.5;exitDx=0;exitDy=0;" parent="1" source="20" edge="1">
                    <mxGeometry width="50" height="50" relative="1" as="geometry">
                        <mxPoint x="260" y="700" as="sourcePoint"/>
                        <mxPoint x="100" y="670" as="targetPoint"/>
                    </mxGeometry>
                </mxCell>
                <mxCell id="22" value="returns bands html" style="text;html=1;strokeColor=none;fillColor=none;align=center;verticalAlign=middle;whiteSpace=wrap;rounded=0;" parent="1" vertex="1">
                    <mxGeometry x="140" y="630" width="260" height="30" as="geometry"/>
                </mxCell>
                <mxCell id="23" value="Event Listener" style="rounded=0;whiteSpace=wrap;html=1;" parent="1" vertex="1">
                    <mxGeometry x="430" y="760" width="120" height="20" as="geometry"/>
                </mxCell>
                <mxCell id="24" value="when band is clicked, each venue they play at is displayed via window alert&amp;nbsp;" style="rounded=0;whiteSpace=wrap;html=1;" parent="1" vertex="1">
                    <mxGeometry x="400" y="780" width="150" height="60" as="geometry"/>
                </mxCell>
                <mxCell id="25" value="main.js" style="rounded=0;whiteSpace=wrap;html=1;" parent="1" vertex="1">
                    <mxGeometry x="40" y="1470" width="120" height="60" as="geometry"/>
                </mxCell>
                <mxCell id="26" value="" style="endArrow=none;html=1;" parent="1" edge="1">
                    <mxGeometry width="50" height="50" relative="1" as="geometry">
                        <mxPoint x="550" y="1510" as="sourcePoint"/>
                        <mxPoint x="550" y="1140" as="targetPoint"/>
                    </mxGeometry>
                </mxCell>
                <mxCell id="27" value="" style="endArrow=classic;html=1;" parent="1" edge="1">
                    <mxGeometry width="50" height="50" relative="1" as="geometry">
                        <mxPoint x="100" y="1180" as="sourcePoint"/>
                        <mxPoint x="550" y="1180" as="targetPoint"/>
                    </mxGeometry>
                </mxCell>
                <mxCell id="28" value="calls Venues()" style="text;html=1;strokeColor=none;fillColor=none;align=center;verticalAlign=middle;whiteSpace=wrap;rounded=0;" parent="1" vertex="1">
                    <mxGeometry x="150" y="1138" width="330" height="30" as="geometry"/>
                </mxCell>
                <mxCell id="29" value="For Loop" style="rounded=0;whiteSpace=wrap;html=1;" parent="1" vertex="1">
                    <mxGeometry x="430" y="1200" width="120" height="20" as="geometry"/>
                </mxCell>
                <mxCell id="30" value="loops through venues array and prints each venue name in ul format" style="rounded=0;whiteSpace=wrap;html=1;" parent="1" vertex="1">
                    <mxGeometry x="410" y="1220" width="140" height="60" as="geometry"/>
                </mxCell>
                <mxCell id="31" value="" style="endArrow=classic;html=1;exitX=0;exitY=0.5;exitDx=0;exitDy=0;" parent="1" source="30" edge="1">
                    <mxGeometry width="50" height="50" relative="1" as="geometry">
                        <mxPoint x="270" y="1280" as="sourcePoint"/>
                        <mxPoint x="100" y="1250" as="targetPoint"/>
                    </mxGeometry>
                </mxCell>
                <mxCell id="32" value="returns venues html" style="text;html=1;strokeColor=none;fillColor=none;align=center;verticalAlign=middle;whiteSpace=wrap;rounded=0;" parent="1" vertex="1">
                    <mxGeometry x="130" y="1210" width="280" height="30" as="geometry"/>
                </mxCell>
                <mxCell id="33" value="Event Listener" style="rounded=0;whiteSpace=wrap;html=1;" parent="1" vertex="1">
                    <mxGeometry x="430" y="1320" width="120" height="20" as="geometry"/>
                </mxCell>
                <mxCell id="34" value="when venue is clicked, all bands playing at that venue will display via a window alert&amp;nbsp;" style="rounded=0;whiteSpace=wrap;html=1;" parent="1" vertex="1">
                    <mxGeometry x="410" y="1340" width="140" height="60" as="geometry"/>
                </mxCell>
                <mxCell id="35" value="database.js" style="rounded=0;whiteSpace=wrap;html=1;" parent="1" vertex="1">
                    <mxGeometry x="960" y="40" width="120" height="60" as="geometry"/>
                </mxCell>
                <mxCell id="36" value="" style="endArrow=none;html=1;" parent="1" edge="1">
                    <mxGeometry width="50" height="50" relative="1" as="geometry">
                        <mxPoint x="1040" y="1470" as="sourcePoint"/>
                        <mxPoint x="1030" y="100" as="targetPoint"/>
                    </mxGeometry>
                </mxCell>
                <mxCell id="37" value="" style="endArrow=classic;html=1;" parent="1" edge="1">
                    <mxGeometry width="50" height="50" relative="1" as="geometry">
                        <mxPoint x="550" y="130" as="sourcePoint"/>
                        <mxPoint x="1030" y="130" as="targetPoint"/>
                    </mxGeometry>
                </mxCell>
                <mxCell id="38" value="requests bookings array" style="text;html=1;strokeColor=none;fillColor=none;align=center;verticalAlign=middle;whiteSpace=wrap;rounded=0;" parent="1" vertex="1">
                    <mxGeometry x="600" y="100" width="380" height="30" as="geometry"/>
                </mxCell>
                <mxCell id="39" value="" style="endArrow=classic;html=1;entryX=1;entryY=0;entryDx=0;entryDy=0;" parent="1" target="9" edge="1">
                    <mxGeometry width="50" height="50" relative="1" as="geometry">
                        <mxPoint x="1030" y="180" as="sourcePoint"/>
                        <mxPoint x="760" y="140" as="targetPoint"/>
                    </mxGeometry>
                </mxCell>
                <mxCell id="41" value="gives bookings array" style="text;html=1;strokeColor=none;fillColor=none;align=center;verticalAlign=middle;whiteSpace=wrap;rounded=0;" parent="1" vertex="1">
                    <mxGeometry x="620" y="150" width="350" height="30" as="geometry"/>
                </mxCell>
                <mxCell id="42" value="" style="endArrow=classic;html=1;" parent="1" edge="1">
                    <mxGeometry width="50" height="50" relative="1" as="geometry">
                        <mxPoint x="550" y="610" as="sourcePoint"/>
                        <mxPoint x="1040" y="610" as="targetPoint"/>
                    </mxGeometry>
                </mxCell>
                <mxCell id="43" value="requests bands array" style="text;html=1;strokeColor=none;fillColor=none;align=center;verticalAlign=middle;whiteSpace=wrap;rounded=0;" parent="1" vertex="1">
                    <mxGeometry x="610" y="580" width="380" height="30" as="geometry"/>
                </mxCell>
                <mxCell id="44" value="" style="endArrow=classic;html=1;entryX=1;entryY=0.383;entryDx=0;entryDy=0;entryPerimeter=0;" parent="1" target="20" edge="1">
                    <mxGeometry width="50" height="50" relative="1" as="geometry">
                        <mxPoint x="1040" y="663" as="sourcePoint"/>
                        <mxPoint x="720" y="680" as="targetPoint"/>
                    </mxGeometry>
                </mxCell>
                <mxCell id="45" value="sends bands array" style="text;html=1;strokeColor=none;fillColor=none;align=center;verticalAlign=middle;whiteSpace=wrap;rounded=0;" parent="1" vertex="1">
                    <mxGeometry x="590" y="630" width="400" height="30" as="geometry"/>
                </mxCell>
                <mxCell id="46" value="" style="endArrow=classic;html=1;" parent="1" edge="1">
                    <mxGeometry width="50" height="50" relative="1" as="geometry">
                        <mxPoint x="550" y="1190" as="sourcePoint"/>
                        <mxPoint x="1040" y="1190" as="targetPoint"/>
                    </mxGeometry>
                </mxCell>
                <mxCell id="47" value="requests venues array" style="text;html=1;strokeColor=none;fillColor=none;align=center;verticalAlign=middle;whiteSpace=wrap;rounded=0;" parent="1" vertex="1">
                    <mxGeometry x="620" y="1153" width="310" height="30" as="geometry"/>
                </mxCell>
                <mxCell id="48" value="sends venues array" style="text;html=1;strokeColor=none;fillColor=none;align=center;verticalAlign=middle;whiteSpace=wrap;rounded=0;" parent="1" vertex="1">
                    <mxGeometry x="600" y="1230" width="380" height="30" as="geometry"/>
                </mxCell>
                <mxCell id="49" value="" style="endArrow=classic;html=1;entryX=1;entryY=0.75;entryDx=0;entryDy=0;" parent="1" target="30" edge="1">
                    <mxGeometry width="50" height="50" relative="1" as="geometry">
                        <mxPoint x="1040" y="1265" as="sourcePoint"/>
                        <mxPoint x="720" y="1280" as="targetPoint"/>
                    </mxGeometry>
                </mxCell>
            </root>
        </mxGraphModel>
    </diagram>
</mxfile>